<svg width="375" height="476" viewBox="0 0 375 476" fill="none" xmlns="http://www.w3.org/2000/svg">
<path opacity="0.4" d="M-196.325 465.338C-216.211 422.342 -236.252 375.742 -231.074 327.187C-224.71 267.405 -182.638 229.836 -123.633 224.427C-36.6167 216.46 41.6965 273.721 126.02 286.354C301.246 312.62 398.676 165.904 412.636 8.54367C413.496 -1.13765 398.49 -3.51314 397.624 6.2439C388.959 103.973 352.901 208.828 258.893 254.866C159.421 303.572 62.3036 249.664 -33.2849 220.974C-92.2378 203.275 -167.345 199.438 -213.188 248.394C-272.218 311.428 -241.891 403.215 -210.412 471.022C-206.301 479.864 -192.216 474.217 -196.325 465.338Z" fill="#697DDB"/>
</svg>
